<svg width="39" height="39" viewBox="0 0 39 39" fill="none" xmlns="http://www.w3.org/2000/svg">
<circle cx="19.5" cy="19.5" r="19.5" fill="#F7F7F7"/>
<path d="M21.628 27.414C21.628 27.8647 21.4807 28.246 21.186 28.558C20.8913 28.8527 20.5187 29 20.068 29C19.6173 29 19.2447 28.8527 18.95 28.558C18.6553 28.246 18.508 27.8647 18.508 27.414V16.676C18.508 16.2253 18.6553 15.8527 18.95 15.558C19.2447 15.246 19.6173 15.09 20.068 15.09C20.5187 15.09 20.8913 15.246 21.186 15.558C21.4807 15.8527 21.628 16.2253 21.628 16.676V27.414ZM20.042 13.4C19.4527 13.4 19.0367 13.3047 18.794 13.114C18.5513 12.9233 18.43 12.5853 18.43 12.1V11.606C18.43 11.1207 18.56 10.7827 18.82 10.592C19.08 10.4013 19.496 10.306 20.068 10.306C20.6747 10.306 21.0993 10.4013 21.342 10.592C21.5847 10.7827 21.706 11.1207 21.706 11.606V12.1C21.706 12.6027 21.576 12.9493 21.316 13.14C21.0733 13.3133 20.6487 13.4 20.042 13.4Z" fill="#65C2AD"/>
</svg>
