<svg width="44" height="44" viewBox="0 0 44 44" fill="none" xmlns="http://www.w3.org/2000/svg">
<rect x="0.353553" y="21.9204" width="30.5" height="30.5" rx="15.25" transform="rotate(-45 0.353553 21.9204)" fill="white" stroke="#65C2AD" stroke-width="0.5"/>
<path d="M17.0765 30.7H20.0765V23.475H20.1515C20.7765 24.25 21.9765 25.3 24.2265 25.3C27.6515 25.3 30.0265 22.55 30.0265 19C30.0265 15.45 27.8015 12.7 24.1015 12.7C22.4265 12.7 20.8515 13.35 19.9765 14.8H19.9265V13H17.0765V30.7ZM27.0265 19C27.0265 20.875 25.7015 22.6 23.5015 22.6C21.3015 22.6 19.9765 20.875 19.9765 19C19.9765 17.125 21.3015 15.4 23.5015 15.4C25.7015 15.4 27.0265 17.125 27.0265 19Z" fill="#65C2AD"/>
<ellipse rx="1.15219" ry="1.35139" transform="matrix(0.850617 -0.525785 0.523381 0.852099 15.0038 29.6016)" fill="#65C2AD"/>
<ellipse rx="1.12756" ry="1.33749" transform="matrix(0.847246 0.5312 0.533503 -0.845798 15.0076 31.4099)" fill="#65C2AD"/>
<ellipse rx="1.14575" ry="1.359" transform="matrix(-0.852099 -0.523381 -0.525785 0.850617 22.0357 29.7282)" fill="#65C2AD"/>
<ellipse rx="1.13396" ry="1.32994" transform="matrix(-0.845798 0.533503 -0.5312 -0.847246 22.0205 31.5365)" fill="#65C2AD"/>
<rect width="6.44846" height="2.07653" rx="1.03826" transform="matrix(0.999999 0.00143518 -0.00771502 0.99997 16.0118 29.2703)" fill="#65C2AD"/>
</svg>
